<?xml version="1.0" standalone="no"?>
<!DOCTYPE svg PUBLIC "-//W3C//DTD SVG 20010904//EN"
 "http://www.w3.org/TR/2001/REC-SVG-20010904/DTD/svg10.dtd">
<svg version="1.0" xmlns="http://www.w3.org/2000/svg"
 width="202.980906pt" height="70.476849pt" viewBox="0 0 202.980906 70.476849"
 preserveAspectRatio="xMidYMid meet">
<metadata>
Created by potrace 1.12, written by Peter Selinger 2001-2015
</metadata>
<g transform="translate(-6.019094,82.868702) scale(0.100000,-0.100000)"
fill="#000000" stroke="none">
<path d="M975 820 c-63 -5 -92 -14 -136 -38 -37 -22 -69 -32 -97 -32 -31 0
-50 -7 -74 -28 -18 -15 -46 -34 -63 -42 -16 -8 -64 -48 -105 -88 -72 -71 -78
-74 -140 -84 -49 -8 -73 -18 -95 -39 -17 -16 -40 -29 -51 -29 -12 0 -45 -29
-87 -77 -74 -84 -81 -108 -49 -173 13 -26 29 -39 67 -53 49 -18 51 -18 138 3
64 16 102 20 138 15 73 -10 64 14 -21 54 -49 23 -70 39 -70 52 0 46 116 199
151 199 6 0 31 14 56 30 24 17 46 30 49 30 8 0 112 78 118 89 24 38 308 64
416 38 36 -9 95 -21 133 -27 37 -7 70 -16 73 -21 3 -5 15 -9 27 -9 12 0 40
-11 62 -25 30 -18 54 -24 98 -25 51 0 65 -5 116 -39 31 -22 73 -46 92 -54 67
-28 109 -102 109 -194 0 -39 3 -44 40 -63 21 -11 47 -20 58 -20 10 0 23 -5 29
-11 13 -13 39 -1 96 44 35 28 37 34 37 84 0 44 -7 66 -34 112 -62 106 -128
162 -205 175 -24 4 -53 12 -65 19 -12 7 -59 12 -111 12 -83 0 -95 3 -155 35
-36 18 -85 46 -110 61 -25 16 -77 38 -115 50 -38 11 -79 28 -92 36 -21 14
-129 45 -143 41 -3 0 -41 -4 -85 -8z"/>
</g>
</svg>
